<svg id="visual" viewBox="0 0 900 600" width="900" height="600" xmlns="http://www.w3.org/2000/svg" xmlns:xlink="http://www.w3.org/1999/xlink" version="1.1"><rect x="0" y="0" width="900" height="600" fill="#f4f4f4"></rect><defs><linearGradient id="grad1_0" x1="33.3%" y1="0%" x2="100%" y2="100%"><stop offset="20%" stop-color="#f4f4f4" stop-opacity="1"></stop><stop offset="80%" stop-color="#f4f4f4" stop-opacity="1"></stop></linearGradient></defs><defs><linearGradient id="grad2_0" x1="0%" y1="0%" x2="66.7%" y2="100%"><stop offset="20%" stop-color="#f4f4f4" stop-opacity="1"></stop><stop offset="80%" stop-color="#f4f4f4" stop-opacity="1"></stop></linearGradient></defs><g transform="translate(900, 0)"><path d="M0 270.4C-29.2 269.5 -58.5 268.5 -83.6 257.2C-108.7 245.8 -129.6 224.1 -146.9 202.3C-164.3 180.4 -177.9 158.5 -188.5 137C-199.1 115.4 -206.6 94.2 -219.7 71.4C-232.8 48.6 -251.6 24.3 -270.4 0L0 0Z" fill="#80c4da"></path></g><g transform="translate(0, 600)"><path d="M0 -270.4C30.4 -271.3 60.9 -272.1 83.6 -257.2C106.3 -242.2 121.3 -211.4 137.5 -189.3C153.8 -167.2 171.4 -153.7 188.5 -137C205.6 -120.2 222.3 -100 235.9 -76.6C249.4 -53.3 259.9 -26.6 270.4 0L0 0Z" fill="#80c4da"></path></g></svg>